<svg width="233" height="233" viewBox="0 0 233 233" fill="none" xmlns="http://www.w3.org/2000/svg">
<path d="M217.371 60.8723C206.953 43.0229 192.822 28.8914 174.974 18.4748C157.124 8.05765 137.636 2.8504 116.498 2.8504C95.3626 2.8504 75.8688 8.05924 58.0219 18.4748C40.1725 28.8909 26.0421 43.0229 15.6244 60.8723C5.20831 78.7213 0 98.2124 0 119.345C0 144.731 7.40629 167.558 22.2226 187.833C37.0373 208.109 56.1757 222.14 79.6362 229.926C82.3671 230.433 84.3886 230.076 85.7031 228.865C87.018 227.653 87.6747 226.135 87.6747 224.316C87.6747 224.013 87.6487 221.284 87.5982 216.125C87.5461 210.967 87.5217 206.467 87.5217 202.627L84.0327 203.231C81.8081 203.638 79.0018 203.811 75.6137 203.762C72.2272 203.715 68.7116 203.36 65.0717 202.7C61.4302 202.046 58.0432 200.529 54.908 198.153C51.7744 195.776 49.5499 192.665 48.2349 188.825L46.7181 185.335C45.707 183.011 44.1152 180.429 41.9406 177.599C39.766 174.767 37.567 172.847 35.3424 171.836L34.2804 171.076C33.5727 170.57 32.916 169.961 32.3087 169.254C31.702 168.547 31.2477 167.839 30.9444 167.13C30.6405 166.421 30.8923 165.839 31.7025 165.383C32.5127 164.926 33.977 164.705 36.1017 164.705L39.1343 165.158C41.157 165.563 43.6588 166.774 46.6431 168.798C49.6258 170.82 52.0778 173.449 53.9995 176.683C56.3266 180.831 59.1302 183.991 62.4184 186.166C65.704 188.34 69.0166 189.426 72.3532 189.426C75.6897 189.426 78.5715 189.173 80.9995 188.67C83.4249 188.164 85.7004 187.403 87.8251 186.393C88.7352 179.615 91.2132 174.407 95.2569 170.767C89.4933 170.162 84.3116 169.25 79.709 168.037C75.109 166.822 70.3555 164.851 65.4516 162.118C60.5451 159.389 56.4748 156 53.2397 151.956C50.0041 147.911 47.3487 142.6 45.2772 136.029C43.2046 129.454 42.168 121.871 42.168 113.275C42.168 101.037 46.1634 90.6223 54.1525 82.0259C50.41 72.8249 50.7633 62.5103 55.2135 51.0832C58.1463 50.172 62.4955 50.8558 68.259 53.1303C74.0236 55.4058 78.2442 57.3551 80.9251 58.9714C83.606 60.587 85.7541 61.9562 87.3724 63.0666C96.779 60.4383 106.486 59.1238 116.497 59.1238C126.508 59.1238 136.217 60.4383 145.624 63.0666L151.388 59.4277C155.33 56.9997 159.985 54.7746 165.341 52.752C170.701 50.7304 174.8 50.1736 177.632 51.0848C182.181 62.5125 182.587 72.8265 178.843 82.0275C186.832 90.6239 190.829 101.041 190.829 113.277C190.829 121.872 189.788 129.48 187.719 136.105C185.647 142.73 182.969 148.036 179.683 152.032C176.394 156.028 172.298 159.391 167.394 162.12C162.489 164.85 157.734 166.822 153.134 168.036C148.532 169.251 143.35 170.163 137.586 170.77C142.843 175.319 145.472 182.5 145.472 192.308V224.312C145.472 226.13 146.104 227.648 147.37 228.861C148.634 230.072 150.63 230.428 153.361 229.921C176.824 222.136 195.963 208.105 210.777 187.829C225.589 167.554 232.998 144.726 232.998 119.341C232.993 98.2109 227.782 78.7213 217.371 60.8723Z" fill="black"/>
</svg>
