<svg width="61" height="99" viewBox="0 0 61 99" fill="none" xmlns="http://www.w3.org/2000/svg">
<path d="M3.84265 61.2503C3.84265 59.1328 4.68828 57.1021 6.1935 55.6048C7.69873 54.1076 9.74026 53.2664 11.869 53.2664H55.2111" stroke="#202024" stroke-width="5" stroke-linecap="round" stroke-linejoin="round"/>
<path d="M11.869 5.36317H55.2111V69.2341H11.869C9.74026 69.2341 7.69873 68.393 6.1935 66.8957C4.68828 65.3985 3.84265 63.3677 3.84265 61.2503V13.347C3.84265 11.2296 4.68828 9.19886 6.1935 7.7016C7.69873 6.20433 9.74026 5.36317 11.869 5.36317V5.36317Z" stroke="#202024" stroke-width="5" stroke-linecap="round" stroke-linejoin="round"/>
<path d="M14.4474 91.576V62.7742C14.4474 62.4981 14.6712 62.2742 14.9474 62.2742H44.4474C44.7235 62.2742 44.9474 62.4981 44.9474 62.7742V91.5034C44.9474 91.9342 44.4389 92.1633 44.1162 91.878L30.8143 80.1166C30.6325 79.9559 30.3616 79.9489 30.1718 80.0999L15.2587 91.9673C14.9311 92.228 14.4474 91.9947 14.4474 91.576Z" fill="#202024" stroke="#202024" stroke-width="5"/>
</svg>
